HIERARCHY
ROOT Hips
{
	OFFSET -14.64140 90.27770 -84.91600
	CHANNELS 6 Xposition Yposition Zposition Zrotation Xrotation Yrotation
	JOINT Spine
	{
		OFFSET 0.00000 13.20850 -1.60436
		CHANNELS 3 Zrotation Xrotation Yrotation
		JOINT Spine1
		{
			OFFSET 0.00000 8.61716 0.00000
			CHANNELS 3 Zrotation Xrotation Yrotation
			JOINT Spine2
			{
				OFFSET 0.00000 8.61717 0.00000
				CHANNELS 3 Zrotation Xrotation Yrotation
				JOINT Spine3
				{
					OFFSET 0.00000 8.61717 0.00000
					CHANNELS 3 Zrotation Xrotation Yrotation
					JOINT Neck
					{
						OFFSET 0.00000 11.07920 1.10792
						CHANNELS 3 Zrotation Xrotation Yrotation
						JOINT Neck1
						{
							OFFSET 0.00000 7.08032 0.00000
							CHANNELS 3 Zrotation Xrotation Yrotation
							JOINT Head
							{
								OFFSET 0.00000 7.08031 0.00000
								CHANNELS 3 Zrotation Xrotation Yrotation
								End site
								{
									OFFSET 0.00000 0.00000 0.00000
								}
							}
						}
					}
					JOINT RightShoulder
					{
						OFFSET -0.01000 7.91373 5.19711
						CHANNELS 3 Zrotation Xrotation Yrotation
						JOINT RightArm
						{
							OFFSET -18.41580 0.00000 0.00000
							CHANNELS 3 Zrotation Xrotation Yrotation
							JOINT RightForeArm
							{
								OFFSET -29.11090 0.00000 0.00000
								CHANNELS 3 Zrotation Xrotation Yrotation
								JOINT RightHand
								{
									OFFSET -24.65040 0.00000 0.00000
									CHANNELS 3 Zrotation Xrotation Yrotation
									JOINT RightHandThumb1
									{
										OFFSET -5.35114 -0.85590 3.97906
										CHANNELS 3 Zrotation Xrotation Yrotation
										JOINT RightHandThumb2
										{
											OFFSET -4.52789 0.00000 0.00000
											CHANNELS 3 Zrotation Xrotation Yrotation
											JOINT RightHandThumb3
											{
												OFFSET -2.46976 0.00000 0.00000
												CHANNELS 3 Zrotation Xrotation Yrotation
												End site
												{
													OFFSET 0.00000 0.00000 0.00000
												}
											}
										}
									}
									JOINT RightHandIndex1
									{
										OFFSET -14.26970 0.00000 2.88139
										CHANNELS 3 Zrotation Xrotation Yrotation
										JOINT RightHandIndex2
										{
											OFFSET -5.48836 0.00000 0.00000
											CHANNELS 3 Zrotation Xrotation Yrotation
											JOINT RightHandIndex3
											{
												OFFSET -3.01859 0.00000 0.00000
												CHANNELS 3 Zrotation Xrotation Yrotation
												End site
												{
													OFFSET 0.00000 0.00000 0.00000
												}
											}
										}
									}
									JOINT RightHandMiddle1
									{
										OFFSET -14.26970 0.00000 -0.09147
										CHANNELS 3 Zrotation Xrotation Yrotation
										JOINT RightHandMiddle2
										{
											OFFSET -6.17441 0.00000 0.00000
											CHANNELS 3 Zrotation Xrotation Yrotation
											JOINT RightHandMiddle3
											{
												OFFSET -3.56743 0.00000 0.00000
												CHANNELS 3 Zrotation Xrotation Yrotation
												End site
												{
													OFFSET 0.00000 0.00000 0.00000
												}
											}
										}
									}
									JOINT RightHandRing1
									{
										OFFSET -12.69180 0.00000 -3.06433
										CHANNELS 3 Zrotation Xrotation Yrotation
										JOINT RightHandRing2
										{
											OFFSET -5.62556 0.00000 0.00000
											CHANNELS 3 Zrotation Xrotation Yrotation
											JOINT RightHandRing3
											{
												OFFSET -3.56744 0.00000 0.00000
												CHANNELS 3 Zrotation Xrotation Yrotation
												End site
												{
													OFFSET 0.00000 0.00000 0.00000
												}
											}
										}
									}
									JOINT RightHandPinky1
									{
										OFFSET -11.11390 0.00000 -6.03719
										CHANNELS 3 Zrotation Xrotation Yrotation
										JOINT RightHandPinky2
										{
											OFFSET -4.52789 0.00000 0.00000
											CHANNELS 3 Zrotation Xrotation Yrotation
											JOINT RightHandPinky3
											{
												OFFSET -2.46976 0.00000 0.00000
												CHANNELS 3 Zrotation Xrotation Yrotation
												End site
												{
													OFFSET 0.00000 0.00000 0.00000
												}
											}
										}
									}
								}
							}
						}
					}
					JOINT LeftShoulder
					{
						OFFSET 0.01000 7.91373 5.19711
						CHANNELS 3 Zrotation Xrotation Yrotation
						JOINT LeftArm
						{
							OFFSET 18.41580 0.00000 0.00000
							CHANNELS 3 Zrotation Xrotation Yrotation
							JOINT LeftForeArm
							{
								OFFSET 29.11090 0.00000 0.00000
								CHANNELS 3 Zrotation Xrotation Yrotation
								JOINT LeftHand
								{
									OFFSET 24.65040 0.00000 0.00000
									CHANNELS 3 Zrotation Xrotation Yrotation
									JOINT LeftHandThumb1
									{
										OFFSET 5.35114 -0.85590 3.97906
										CHANNELS 3 Zrotation Xrotation Yrotation
										JOINT LeftHandThumb2
										{
											OFFSET 4.52789 0.00000 0.00000
											CHANNELS 3 Zrotation Xrotation Yrotation
											JOINT LeftHandThumb3
											{
												OFFSET 2.46977 0.00000 0.00000
												CHANNELS 3 Zrotation Xrotation Yrotation
												End site
												{
													OFFSET 0.00000 0.00000 0.00000
												}
											}
										}
									}
									JOINT LeftHandIndex1
									{
										OFFSET 14.26970 0.00000 2.88139
										CHANNELS 3 Zrotation Xrotation Yrotation
										JOINT LeftHandIndex2
										{
											OFFSET 5.48836 0.00000 0.00000
											CHANNELS 3 Zrotation Xrotation Yrotation
											JOINT LeftHandIndex3
											{
												OFFSET 3.01859 0.00000 0.00000
												CHANNELS 3 Zrotation Xrotation Yrotation
												End site
												{
													OFFSET 0.00000 0.00000 0.00000
												}
											}
										}
									}
									JOINT LeftHandMiddle1
									{
										OFFSET 14.26970 0.00000 -0.09147
										CHANNELS 3 Zrotation Xrotation Yrotation
										JOINT LeftHandMiddle2
										{
											OFFSET 6.17440 0.00000 0.00000
											CHANNELS 3 Zrotation Xrotation Yrotation
											JOINT LeftHandMiddle3
											{
												OFFSET 3.56744 0.00000 0.00000
												CHANNELS 3 Zrotation Xrotation Yrotation
												End site
												{
													OFFSET 0.00000 0.00000 0.00000
												}
											}
										}
									}
									JOINT LeftHandRing1
									{
										OFFSET 12.69180 0.00000 -3.06433
										CHANNELS 3 Zrotation Xrotation Yrotation
										JOINT LeftHandRing2
										{
											OFFSET 5.62556 0.00000 0.00000
											CHANNELS 3 Zrotation Xrotation Yrotation
											JOINT LeftHandRing3
											{
												OFFSET 3.56744 0.00000 0.00000
												CHANNELS 3 Zrotation Xrotation Yrotation
												End site
												{
													OFFSET 0.00000 0.00000 0.00000
												}
											}
										}
									}
									JOINT LeftHandPinky1
									{
										OFFSET 11.11390 0.00000 -6.03719
										CHANNELS 3 Zrotation Xrotation Yrotation
										JOINT LeftHandPinky2
										{
											OFFSET 4.52789 0.00000 0.00000
											CHANNELS 3 Zrotation Xrotation Yrotation
											JOINT LeftHandPinky3
											{
												OFFSET 2.46976 0.00000 0.00000
												CHANNELS 3 Zrotation Xrotation Yrotation
												End site
												{
													OFFSET 0.00000 0.00000 0.00000
												}
											}
										}
									}
								}
							}
						}
					}
					JOINT pCube4
					{
						OFFSET 0.00000 10.91090 1.10792
						CHANNELS 3 Zrotation Xrotation Yrotation
						End site
						{
							OFFSET 0.00000 0.00000 0.00000
						}
					}
				}
			}
		}
	}
	JOINT RightUpLeg
	{
		OFFSET -9.98441 0.00000 0.00000
		CHANNELS 3 Zrotation Xrotation Yrotation
		JOINT RightLeg
		{
			OFFSET 0.00000 -42.11790 0.00000
			CHANNELS 3 Zrotation Xrotation Yrotation
			JOINT RightFoot
			{
				OFFSET 0.00000 -45.00020 -0.00001
				CHANNELS 3 Zrotation Xrotation Yrotation
				JOINT RightForeFoot
				{
					OFFSET 0.00000 -3.74820 0.00000
					CHANNELS 3 Zrotation Xrotation Yrotation
					JOINT RightToeBase
					{
						OFFSET 0.00000 0.06325 14.43120
						CHANNELS 3 Zrotation Xrotation Yrotation
						End site
						{
							OFFSET 0.00000 0.00000 0.00000
						}
					}
				}
			}
		}
	}
	JOINT LeftUpLeg
	{
		OFFSET 9.98441 0.00000 0.00000
		CHANNELS 3 Zrotation Xrotation Yrotation
		JOINT LeftLeg
		{
			OFFSET 0.00000 -42.11800 0.00000
			CHANNELS 3 Zrotation Xrotation Yrotation
			JOINT LeftFoot
			{
				OFFSET 0.00000 -45.00070 0.00000
				CHANNELS 3 Zrotation Xrotation Yrotation
				JOINT LeftForeFoot
				{
					OFFSET 0.00000 -3.74824 0.00000
					CHANNELS 3 Zrotation Xrotation Yrotation
					JOINT LeftToeBase
					{
						OFFSET 0.00000 0.06325 14.43110
						CHANNELS 3 Zrotation Xrotation Yrotation
						End site
						{
							OFFSET 0.00000 0.00000 0.00000
						}
					}
				}
			}
		}
	}
}
MOTION
Frames: 4
Frame Time: 0.050000
0.024999310424129447 -0.031350523880802915 0.006948622601779819 0.001708293475823523 0.015881703036033618 -0.024498721304617624 4.9296814584466455 2.899666671358358 -2.177609763656454 -0.6493994579133625 3.84032023078073 0.2962067570274648 -0.6214436757353926 -1.6368578963678495 0.6041895323353219 -0.40736629388099826 -0.626616625140886 -0.27939335379278285 0.18382131100558546 16.620428662856533 -3.0610375014174203 0.37859042405684257 -0.6585594457741734 -6.137703204007783 1.3290547135447544 -18.212131532168954 -0.6235792480628799 -13.92412882576763 4.306375830702614 -17.86388328781825 82.4816682171148 -11.288469371536207 32.154631100074695 23.896000602258283 10.719860372797633 107.40638702774295 9.36501077268816 -0.2607932322155824 -0.14371790749994193 4.527602119803543 -0.08051276605776908 -1.6159827673371816 -0.022569797342361964 0.023432030490359395 -56.18937991085822 -0.015527952434557395 0.008864088623718175 -56.21716979090152 -38.81821769300004 0.023045990566355236 -0.02243644381608239 -0.03754259973790539 -0.0023181387497069827 -0.04760329014146896 -0.005330850892798503 0.003571886286945504 -0.03137255241734299 -36.707072870910466 0.032279454936582734 -0.029701927637275916 -0.024456761041377784 0.007853728050850283 -0.018749492928506542 0.0062689693647264115 -0.0033623614130878854 -0.018508243973110093 -19.773178903088162 -0.044224407397980635 -0.032762177834424824 -0.02960228565367589 0.026995484822332133 -0.013518267818350466 -0.02163277283971324 -0.030919448270766054 -0.018576063965143143 24.05394596313877 0.007763443095059546 0.03554608618777059 28.90592780653454 -0.023197766204044377 -0.007656880336556945 28.85066803829197 -0.04422272715348702 -0.028821897635256798 14.651070309144144 3.2064831853471616 14.993876256037579 -77.7201915538604 1.238292597929007 -37.26805739936036 -34.85690038662136 16.161068749206297 -108.21904859827362 -12.8152622112353 3.823311049008282 -6.146682594408321 -0.47206477202571345 0.028530994436663702 -8.106167146970416 -0.014946165100190307 -0.020468461098759144 44.5958658262117 -0.02469465985105504 -0.00925443725771121 44.55113650734053 12.439730579392059 0.02021939757012512 -0.006248233209991331 0.00024132410015315905 -0.02136702423109522 -0.015803297367771262 0.012102699941796018 -0.03454606336783215 -0.0035836865492116657 11.107040528808936 0.004666966521744368 0.003340226176781472 -0.03195568832936322 0.026343031719622323 0.026824780361311834 -0.0370657785128354 -0.02570906495095683 -0.044597547904614565 4.748538741369667 -0.018746371945865523 -0.04199954176216071 -0.00986596118073783 0.030011334281884884 0.010000102984913963 -0.020480256242115885 0.0029749200339799766 0.026022052201431972 -5.610001585893998 -0.03350941959564483 -0.034083054958246664 -6.704243013990593 -0.050000953608422646 -0.02105415796567993 -6.678601856545224 -0.03248794154049453 0.015071200044267387 0.0319943809981884 0.017352213027268484 0.02362325436495226 8.094077624600777 3.511601935388873 -19.230211933707658 0.0183987380431013 10.41876824683634 0.04749570166785057 -5.641774857043666 -15.690901295341364 3.1513998081571084 0.01960549981822603 0.008897026830734199 0.04146180716429413 0.007723069029511403 4.742650200130989 -0.023304249727283077 12.46548612995043 -8.281871550275739 6.8543722210588465 0.035589480432107516 46.38738310484342 -0.03400444973253623 -4.324535740627576 -14.712990282186896 -3.8300460050721234 0.0018754961368747068 0.022317503479728162 0.0010080143267104567 -0.013336029491097447 -10.754796761100703 0.0213416124764789 
0.01845344280179742 0.028737615464993815 -0.005789976539282312 0.024153055600595177 -0.00035950341115355093 0.022360700945418747 4.952293345731938 2.9989822360010097 -2.226121894476744 -0.6642733469383006 3.7874008498735674 0.3531485911130235 -0.6470563135137692 -1.5963917289264364 0.4528476732272261 -0.3747048129163129 -0.4802313530396191 -0.3387977244875292 0.04394226340432441 16.469883313926225 -2.9617204816118434 0.32106165486775967 -0.6527971418081455 -5.877053965747104 1.1603217294862123 -18.185281229824206 -0.6181453988854807 -14.053428969842628 4.266647182168089 -17.918657191110313 83.6155906913651 -10.613731140537897 31.024671464964566 26.62052670719638 10.778496217010302 106.67338252610742 9.206077743119868 -0.2617243779591131 -0.5253407155307982 4.548099298499006 -0.11924868874513833 -1.5987600712938055 0.01239580083660813 -0.04431507940021912 -56.26506487440959 0.010789487417675433 0.014715953706431313 -56.22448332982149 -38.80528334493262 0.005441162451034954 -0.004767323029976189 -0.04299287546018877 0.011662721306358747 0.03619435811078073 -0.03727865217052741 0.006204060391354751 0.0366693276611818 -36.67940204889427 -0.013632954260173094 -0.016476001764483557 -0.020050291586565665 -0.04147479482807719 0.038731255387929285 -0.039743334556082574 -0.027254450739924635 0.014779460321407922 -19.732641497654715 -0.043492925153449685 -0.0011740504522838966 0.012897589390186114 0.04263634959602369 -0.041117924767117286 -0.01023551688397658 -0.0009004377764347142 0.023297453652653656 24.017770801986288 -0.0328521831939126 0.04987137903532048 28.87336210528486 0.03540315333000347 -0.01919563315743579 28.836837630645572 0.04344161332143242 -0.008457987475236057 15.014197413879513 3.2986854538264594 15.016635540790018 -78.29743339819711 0.09418562879187786 -37.4296738760599 -41.16954973938502 16.752355770953347 -109.48856330183473 -12.135053460044439 3.2358705249374755 -5.155850727673799 -0.4275672976264178 0.05631032004537079 -8.078976837468646 -0.005327432943503058 0.00531668351781028 44.60116529475005 0.03342627121558582 0.016245387308981514 44.544690952023615 12.489197159141218 -0.0045503653473966555 -0.020177772040356007 -0.00945687677389738 0.021639646996104676 -0.044164540217280404 -0.04701262275594205 0.03550060715902506 0.02228791394089333 11.13722052300258 0.0011336256598637048 0.040764277043182015 0.011481328501280485 0.028418631259799775 0.044392429292043234 0.01601931167693164 0.03913403193349158 0.01650783068917499 4.7247513795068246 -0.04306533824793925 -0.003950704275498123 -0.0015768425550878457 -0.04446751661541549 -0.025196006365082717 -0.01225407350977578 0.011636508075720335 0.005668563548356731 -5.645222842455723 0.048031600014861356 -0.030318531144604796 -6.736255749746439 -0.006396033533172255 0.025427513925851745 -6.700144500702631 0.02411837268487913 0.029012409664985372 -0.041995854894876804 0.011721914431260357 0.030450564074359483 8.030919223625359 3.47363665466625 -19.21026925193968 0.020211245289044267 10.411586342308876 -0.01983262084680704 -5.573945361521108 -15.660547263719671 3.188843915209041 0.04196841534573049 0.006445177017321263 0.03948356012824604 -0.011940094795155448 4.679845911720367 -0.012751888599912808 12.486294471814507 -8.250389636781392 6.841163364383234 -0.013442787853290354 46.34809216118816 0.03548813992099366 -4.3458871814572815 -14.781704384412775 -3.807804259073115 -0.011224984677781937 0.025792682428162378 -0.004763363322268796 0.03626459826181489 -10.726047245164185 0.014204712494880865 
0.03084691485926283 0.021752401902349162 0.00841717235354207 -0.021330987114128536 0.016889770162244137 0.02820140095458214 4.99553523075383 2.9734502015704996 -2.2670463599720785 -0.7166713237943193 3.730141691003892 0.3818092667286138 -0.6751224189177748 -1.5743949512889774 0.3959043169271837 -0.4280358512300938 -0.4736700354922166 -0.28736209876527974 0.05469943133612473 16.376392679273515 -2.8351365892636657 0.3168904229786934 -0.6884271952196305 -5.80616706504329 1.220973903389203 -18.275845818611558 -0.5189950957819612 -14.389239276228668 4.413814267523324 -18.037960776198865 84.73862797944207 -10.843337547827652 30.586167715549298 28.320218720600966 10.461197167125805 105.72053078894115 9.223961284136118 -0.2364846292790539 -0.9610251181035455 4.551131169831287 -0.08451732702180755 -1.5483469564580823 -0.014179573773069559 0.014500591340000889 -56.261460609777096 0.0357171993594566 -0.02398681423288805 -56.223647336696715 -38.789164604349146 0.0014267045836637662 -0.04117231611264101 -0.02856571379969483 0.013939180207080184 -0.04559977243132864 -0.0034258394392128796 0.009346726286570019 -0.040665462122150615 -36.73296052299704 0.04117895430870795 -0.01274690961943708 -0.005096973547958437 0.026610855871262294 -0.046972852645826846 0.02777782374109266 0.016385868034070848 -0.0025097259317666135 -19.70891483700121 -0.02911155835824661 0.04414539316976625 0.0353244846023563 0.03461565150046429 0.0008429655234133683 0.01225634877567712 0.015267624229119 0.013629951240953344 24.094292017918654 0.035071809062868116 -0.018473208564931048 28.853075719015266 -0.048607960568158935 0.003128307679585634 28.894393892927432 0.01554010275852266 -0.026308159669687785 15.242644011221396 3.3021930566432043 15.011146679703208 -78.66886432980748 -0.8541483022184051 -36.821303951572574 -46.137648648667444 16.484141023675036 -109.95462278187902 -11.589022459135338 2.7064771520697475 -4.241954017875553 -0.4875965890523279 0.057949776306649714 -8.114041807724503 -0.004337395046256679 0.010842204732072818 44.5702871231249 0.019578589869801873 0.04630146559678754 44.583474387651265 12.467895089065843 -0.007720729341626267 0.013935904843732994 -0.0035611552794833747 0.028876135241990973 -0.026759461864447606 -0.030582623027355423 0.01255165718727619 -0.02737900845356529 11.125505069632718 0.04945951712603886 -0.04497684662773593 -0.00938343816171235 0.010703147752569132 0.009777831678755039 -0.0035974069402798375 0.039241499450066566 0.037512308445629056 4.771932976194533 0.0494443484862397 0.008629650406586245 0.0008297157452159883 0.016042325994332272 -0.042586474496703705 -0.02274924001575451 -0.035874435300591104 0.008636350410289654 -5.595139408274308 0.04203311289821282 0.04176661517789419 -6.711106142075802 0.03909430580509394 0.020455220699859007 -6.687097813346212 -0.027641152140599885 0.023959878800071804 0.017516599359996082 -0.0252305987896306 -0.038836435398260524 8.075470387461916 3.464145992096628 -19.256217597037807 -0.04145168988337601 10.433831189137228 0.05203747756893076 -5.6620457097827765 -15.62519363485026 3.16817902643977 -0.028176864439182776 -0.0072370422588234895 0.039081865234827436 -0.04149719001739217 4.668071461003879 -0.006358932870354551 12.494088303449416 -8.28517845703123 6.908779746824489 0.01640019624068122 46.39415628021531 -0.008499470098641574 -4.365512003711901 -14.743978372210993 -3.86352704529807 -0.02261843997396586 -0.045059701427198985 0.03188996426559705 -0.022924566858404643 -10.756120997488706 0.020133506360580047 
0.02353765029586906 -0.0019324302026365017 -0.01081795874482382 0.0275911415985946 0.007363477809965668 0.014348535985000705 4.8784228967443815 3.1405808846856367 -2.2328471715693463 -0.6945152449475569 3.773414022059552 0.31836442526565284 -0.7001530591025641 -1.5680706484676492 0.29684392982256647 -0.4729715739396787 -0.4183253709261576 -0.3122398321969199 0.07211747054671949 16.00494991221336 -2.897710458758977 0.320320209380446 -0.7689924430679401 -5.904358350452816 1.1675794163180195 -18.359099197235786 -0.5300363825665113 -14.337458589751376 4.4009965726979585 -17.920640122630964 85.762108549232 -10.71893892669037 30.187461371394104 29.281299618722553 9.864845356335925 104.88719284153159 9.339167761914295 -0.26627345844729083 -1.4661642320466164 4.530170536936981 -0.11069027643024759 -1.6138273501909803 0.019283208296916366 0.0461211377430388 -56.21904800626194 0.04927545728743991 0.028029794132923766 -56.24404024025311 -38.72537040860035 0.008176052706827941 -0.02247761515935484 0.01605520978350484 -0.006653151258313836 0.03479887076666068 0.008310172349398985 -0.007429367323741613 -0.04559931948676977 -36.67918060592768 0.007655938559572927 0.024343503121228124 0.0044748156914079145 0.04875685407746306 0.04277505951781368 -0.012787552228357134 0.02634664450745962 -0.021850060355032674 -19.723336177254048 0.0118927082451439 0.017057744330103406 -0.02308294219961352 0.01674468378444276 0.02368373945310279 0.03113830528495477 0.004560092002048512 -0.04611923715368567 24.023645832766885 0.045060846567660386 0.017491254817050154 28.856245628557247 -0.04306500654712574 -0.04732468003859701 28.85822367025642 -0.04189574714953003 -0.024215183532714346 15.12079630511375 3.322239798932253 14.821887439593448 -79.15233272725395 -1.1885133718094791 -35.685514766452066 -50.22971446084186 15.88679545495797 -110.03602901906957 -10.83915281822002 2.055576359714796 -3.336297439396704 -0.5144387059842113 0.030911426266578133 -8.096802400011528 0.03671718843525262 0.0219254382349145 44.53468782825329 0.021679322686982333 0.016858289390442458 44.554673414908166 12.471092280508625 -0.0011607863837549443 -0.019589840754325887 0.0011011079798253973 -0.023678269387003025 0.02470683122780523 -0.016185892114478816 -0.0049570324115176334 -0.03847224821621199 11.09969066693792 -0.02200249062335407 0.022062645292818615 -0.00995788614646211 0.006781947059487817 0.016351532678246513 -0.01625153486186896 0.020343547073689693 -0.02855036957478421 4.748908480247424 0.03422438360422364 0.002626439108348124 0.03958834531263292 0.015753181922270078 -0.018938747638815107 0.0364446967324605 0.04495446596592671 -0.016924112007269915 -5.635184928053759 -0.0015770371194673714 -0.02967104398228146 -6.677522648285276 -0.011469743111905354 -0.017009950910893648 -6.731829434020334 -0.01847674021314427 0.019139354305472672 0.0019898283574701038 -0.028501312619962627 -0.03900706434071842 8.093173374933107 3.482083297196405 -19.179884506282118 0.04585041100435822 10.360539023047883 0.0036051462695078328 -5.63778579713489 -15.673394181588238 3.175079751581106 0.03366051084101949 -0.0016398396925196015 -0.03561312327361026 -0.023333199021020788 4.681793660387623 0.005023216708480656 12.427506739358712 -8.1943533750082 6.841557673686574 0.005166224392491147 46.370236973258784 -0.002499888585237524 -4.302902391369838 -14.735632060830794 -3.8544585746256383 -0.0029730868244505033 0.01918298004143219 0.0042242291060613215 -0.03258651958989038 -10.72396834153823 0.04017399197988693 
